<svg version="1.2" xmlns="http://www.w3.org/2000/svg" viewBox="0 0 100 102" width="100" height="102"><style>tspan{white-space:pre}.a{fill:none}.b{font-size: 5px;fill: #000000;font-family: "' Helvetica  Neue'"}</style><path fill-rule="evenodd" class="a" d="m45.3 59.8l-0.3-2.7q-0.3-0.2-0.6-0.4l-2.6 0.3-3.2 7.9z"/><path fill-rule="evenodd" class="a" d="m48.2 41.4q0.7-0.1 1.3-0.1l-0.8-1z"/><path fill-rule="evenodd" class="a" d="m67.3 42.8l-8.4 1.1-1 2.4q0.2 0.4 0.3 0.7l2.4 1z"/><path fill-rule="evenodd" class="a" d="m42.2 56l1.3-0.2q-0.5-0.5-0.8-1z"/><path fill-rule="evenodd" class="a" d="m53.8 40.9l-1.1 0.8q0.7 0.2 1.2 0.5z"/><path fill-rule="evenodd" class="a" d="m49.2 39.2l1.6 2.1q0.3 0 0.7 0.1l2.1-1.6-1.2-8.4z"/><path fill-rule="evenodd" class="a" d="m59.7 48.7l-1.1-0.5q0.1 0.7 0.1 1.3z"/><path fill-rule="evenodd" class="a" d="m56.1 58.9l-2.4-1q-0.4 0.2-0.7 0.3l-1 2.4 5.2 6.7z"/><path fill-rule="evenodd" class="a" d="m56 57.8l-0.2-1.3q-0.5 0.5-1 0.8z"/><path fill-rule="evenodd" class="a" d="m59.8 54.7l-2.7 0.3q-0.2 0.3-0.4 0.6l0.3 2.6 7.9 3.2z"/><path fill-rule="evenodd" class="a" d="m59.1 53.8l-0.8-1.1q-0.2 0.7-0.5 1.2z"/><path fill-rule="evenodd" class="a" d="m54.7 40.2l0.3 2.7q0.3 0.2 0.6 0.4l2.6-0.3 3.2-7.9z"/><path fill-rule="evenodd" class="a" d="m57.8 44l-1.3 0.2q0.5 0.5 0.8 1z"/><path fill-rule="evenodd" class="a" d="m39.2 50.8l2.1-1.6q0-0.3 0.1-0.7l-1.6-2.1-8.4 1.2z"/><path fill-rule="evenodd" class="a" d="m46.2 59.1l1.1-0.8q-0.7-0.2-1.2-0.5z"/><path fill-rule="evenodd" class="a" d="m51.8 58.6q-0.7 0.1-1.3 0.1l0.8 1z"/><path fill-rule="evenodd" class="a" d="m50.8 60.8l-1.6-2.1q-0.3 0-0.7-0.1l-2.1 1.6 1.2 8.4z"/><path fill-rule="evenodd" class="a" d="m61.7 48.5l8.8 3.7 19-2.6q-0.1-4.9-1.2-9.4l-19 2.4z"/><path fill-rule="evenodd" class="a" d="m52.3 57.4q-1.1 0.3-2.3 0.4c-1.5 0-2.9-0.5-4.1-1.2l-0.4-2.9c0-0.3-0.3-0.5-0.6-0.4-0.2 0-0.4 0.2-0.4 0.5l0.3 1.9c-1.6-1.4-2.5-3.4-2.5-5.7q0-0.1 0-0.3l2.3-1.8c0.2-0.1 0.2-0.4 0-0.7-0.1-0.2-0.4-0.2-0.7 0l-1.5 1.1c0.5-2.2 2-4.1 4-5.1l2.7 1.1q0.1 0 0.2 0c0.1 0 0.3-0.1 0.4-0.3 0.1-0.3 0-0.6-0.3-0.7l-1.7-0.7q1.1-0.3 2.3-0.3c1.5 0 2.9 0.4 4.1 1.1l0.4 2.9c0 0.3 0.3 0.5 0.5 0.5q0 0 0.1-0.1c0.2 0 0.4-0.2 0.4-0.5l-0.3-1.9c1.6 1.4 2.6 3.4 2.6 5.7q-0.1 0.1-0.1 0.3l-2.3 1.8c-0.2 0.1-0.2 0.4 0 0.7q0.1 0.2 0.3 0.2 0.2 0 0.4-0.1l1.5-1.2c-0.5 2.2-2 4.1-4 5.1l-2.7-1.1c-0.2-0.1-0.5 0.1-0.6 0.3-0.1 0.3 0 0.6 0.3 0.7zm3.2-8.3c0 0.3 0.3 0.6 0.6 0.6 0.4 0 0.6-0.3 0.6-0.6 0-0.4-0.2-0.6-0.6-0.6-0.3 0-0.6 0.2-0.6 0.6zm-11.1 1.8c0-0.4-0.3-0.7-0.7-0.7-0.3 0-0.6 0.3-0.6 0.7 0 0.3 0.3 0.6 0.6 0.6 0.4 0 0.7-0.3 0.7-0.6zm8.8 4c0 0.3 0.2 0.6 0.6 0.6 0.3 0 0.6-0.3 0.6-0.6 0-0.4-0.3-0.6-0.6-0.6-0.4 0-0.6 0.2-0.6 0.6zm-1.6-10.7c0 0.3 0.3 0.6 0.7 0.6 0.3 0 0.6-0.3 0.6-0.6 0-0.4-0.3-0.6-0.6-0.6-0.4 0-0.7 0.2-0.7 0.6zm-4.9 0.9c0-0.4-0.3-0.7-0.6-0.7-0.4 0-0.7 0.3-0.7 0.7 0 0.3 0.3 0.6 0.7 0.6 0.3 0 0.6-0.3 0.6-0.6zm1.5 10.7c0-0.4-0.3-0.6-0.6-0.6-0.3 0-0.6 0.2-0.6 0.6 0 0.3 0.3 0.6 0.6 0.6 0.3 0 0.6-0.3 0.6-0.6zm1.9-4.5c0.1 0.2 0.3 0.3 0.5 0.3q0.1 0 0.2-0.1c0.2-0.1 0.3-0.5 0.2-0.7l-0.2-0.3h0.4c0.3 0 0.5-0.2 0.5-0.5 0-0.3-0.2-0.5-0.5-0.5h-0.4l0.2-0.4c0.1-0.2 0-0.5-0.2-0.6-0.2-0.2-0.5-0.1-0.7 0.1l-0.2 0.4-0.2-0.4c-0.1-0.2-0.4-0.3-0.6-0.1-0.3 0.1-0.4 0.4-0.2 0.6l0.2 0.4h-0.4c-0.3 0-0.5 0.2-0.5 0.5 0 0.3 0.2 0.5 0.5 0.5h0.4l-0.2 0.3c-0.2 0.3-0.1 0.6 0.2 0.7q0.1 0.1 0.2 0.1c0.2 0 0.3-0.1 0.4-0.3l0.2-0.3z"/><path fill-rule="evenodd" class="a" d="m40.2 45.3l2.7-0.3q0.2-0.3 0.4-0.6l-0.3-2.6-7.9-3.2z"/><path fill-rule="evenodd" class="a" d="m42.2 46.1l-1.3 0.1 0.8 1.1q0.2-0.7 0.5-1.2z"/><path fill-rule="evenodd" class="a" d="m60.8 49.2l-2.1 1.6q0 0.3-0.1 0.7l1.6 2.1 8.4-1.2z"/><path fill-rule="evenodd" class="a" d="m40.3 51.3l1.1 0.5q-0.1-0.7-0.1-1.3z"/><path fill-rule="evenodd" class="a" d="m47 41.8l1-2.4-5.2-6.7 1.1 8.4 2.4 1q0.3-0.2 0.7-0.3z"/><path fill-rule="evenodd" class="a" d="m41.1 56.1l1-2.4q-0.2-0.4-0.3-0.7l-2.4-1-6.7 5.2z"/><path fill-rule="evenodd" class="a" d="m45.2 42.7l-1.2-0.5 0.2 1.3q0.5-0.5 1-0.8z"/><path fill-rule="evenodd" class="a" d="m45.5 60.9l-7.7 5.8-7.2 17.7c2.8 1.5 5.7 2.8 8.8 3.6l7.4-17.6z"/><path fill-rule="evenodd" class="a" d="m51.5 61.7l-3.7 8.8 2.6 19q4.9-0.1 9.4-1.2l-2.4-19z"/><path fill-rule="evenodd" class="a" d="m60.8 88q4.5-1.3 8.4-3.5l-10.6-13.7z"/><path fill-rule="evenodd" class="a" d="m40.3 88.3q4.4 1.1 9.1 1.2l-2.3-17.2z"/><path fill-rule="evenodd" class="a" d="m40.6 57.2l-9.5 1.2-15.1 11.7c1.6 2.7 3.6 5.3 5.8 7.5l15.2-11.5z"/><path fill-rule="evenodd" class="a" d="m22.5 78.3c2.2 2.1 4.6 4 7.3 5.6l6.5-16z"/><path fill-rule="evenodd" class="a" d="m57.2 59.4l1.2 9.5 11.7 15.1c2.7-1.6 5.3-3.6 7.5-5.8l-11.5-15.2z"/><path fill-rule="evenodd" class="a" d="m94 50c0 24.3-19.7 44-44 44-24.3 0-44-19.7-44-44 0-24.3 19.7-44 44-44 24.3 0 44 19.7 44 44zm-8.9 20.1c3.4-5.9 5.4-12.8 5.4-20.1 0-7.3-2-14.2-5.4-20.1q0-0.1-0.1-0.2 0 0 0 0c-1.7-3-3.9-5.8-6.3-8.2q0-0.1 0-0.1-0.1-0.1-0.2-0.1c-2.4-2.4-5.2-4.5-8.1-6.3q-0.1-0.1-0.2-0.1 0 0-0.1 0c-5.9-3.4-12.8-5.4-20.1-5.4-7.3 0-14.2 2-20.1 5.4q-0.1 0-0.2 0.1 0 0 0 0c-3 1.7-5.8 3.9-8.2 6.3q-0.1 0-0.1 0-0.1 0.1-0.1 0.2c-2.4 2.4-4.5 5.2-6.3 8.1q-0.1 0.1-0.1 0.2 0 0 0 0.1c-3.4 5.9-5.4 12.8-5.4 20.1 0 7.3 2 14.2 5.4 20.1q0 0.1 0.1 0.2 0 0 0 0c1.7 3 3.9 5.8 6.3 8.2q0 0.1 0 0.1 0.1 0 0.1 0.1c2.5 2.4 5.2 4.5 8.2 6.3q0.1 0.1 0.2 0.1 0 0 0.1 0c5.9 3.4 12.8 5.4 20.1 5.4 7.4 0 14.3-2 20.2-5.4q0.1 0 0.1-0.1 0 0 0 0c3-1.7 5.8-3.9 8.3-6.3q0 0 0 0 0.1-0.1 0.1-0.2c2.5-2.4 4.6-5.2 6.3-8.2q0.1-0.1 0.1-0.1 0 0 0-0.1z"/><path fill-rule="evenodd" class="a" d="m12 60.8q1.3 4.5 3.5 8.4l13.7-10.6z"/><path fill-rule="evenodd" class="a" d="m60.9 54.5l5.8 7.7 17.7 7.2c1.5-2.8 2.8-5.7 3.6-8.8l-17.6-7.4z"/><path fill-rule="evenodd" class="a" d="m88.3 59.7q1.1-4.4 1.2-9.1l-17.2 2.3z"/><path fill-rule="evenodd" class="a" d="m78.3 77.5c2.1-2.2 4-4.6 5.6-7.3l-16-6.5z"/><path fill-rule="evenodd" class="a" d="m77.5 21.7c-2.2-2.1-4.6-4-7.3-5.6l-6.5 16z"/><path fill-rule="evenodd" class="a" d="m59.4 42.8l9.5-1.2 15.1-11.7c-1.6-2.7-3.6-5.3-5.8-7.5l-15.2 11.5z"/><path fill-rule="evenodd" class="a" d="m48.5 38.3l3.7-8.8-2.6-19q-4.9 0.1-9.4 1.2l2.4 19z"/><path fill-rule="evenodd" class="a" d="m39.2 12q-4.5 1.3-8.4 3.5l10.6 13.7z"/><path fill-rule="evenodd" class="a" d="m38.3 51.5l-8.8-3.7-19 2.6q0.1 4.9 1.2 9.4l19-2.4z"/><path fill-rule="evenodd" class="a" d="m88 39.2q-1.3-4.5-3.5-8.4l-13.7 10.6z"/><path fill-rule="evenodd" class="a" d="m54.5 39.1l7.7-5.8 7.2-17.7c-2.8-1.5-5.7-2.8-8.8-3.6l-7.4 17.6z"/><path fill-rule="evenodd" class="a" d="m59.7 11.7q-4.4-1.1-9.1-1.2l2.3 17.2z"/><path fill-rule="evenodd" class="a" d="m42.8 40.6l-1.2-9.5-11.7-15.1c-2.7 1.6-5.3 3.6-7.5 5.8l11.5 15.2z"/><path fill-rule="evenodd" class="a" d="m11.7 40.3q-1.1 4.4-1.2 9.1l17.2-2.3z"/><path fill-rule="evenodd" class="a" d="m39.1 45.5l-5.8-7.7-17.7-7.2c-1.5 2.8-2.8 5.7-3.6 8.8l17.6 7.4z"/><path fill-rule="evenodd" class="a" d="m21.7 22.5c-2.1 2.2-4 4.6-5.6 7.3l16 6.5z"/><path fill-rule="evenodd" d="m95 50c0 24.9-20.1 45-45 45-24.9 0-45-20.1-45-45 0-24.9 20.1-45 45-45 24.9 0 45 20.1 45 45zm-1 0c0-24.3-19.7-44-44-44-24.3 0-44 19.7-44 44 0 24.3 19.7 44 44 44 24.3 0 44-19.7 44-44z"/><path  d="m50.9 51.5c0.2-0.1 0.3-0.4 0.2-0.7l-0.2-0.3h0.4c0.2 0 0.5-0.2 0.5-0.5 0-0.3-0.3-0.5-0.5-0.5h-0.4l0.2-0.3c0.1-0.3 0-0.6-0.2-0.7-0.3-0.2-0.6-0.1-0.7 0.2l-0.2 0.3-0.2-0.3c-0.1-0.3-0.4-0.4-0.7-0.2-0.2 0.1-0.3 0.4-0.2 0.7l0.2 0.3h-0.3c-0.3 0-0.5 0.2-0.5 0.5 0 0.3 0.2 0.5 0.5 0.5h0.3l-0.2 0.3c-0.1 0.3 0 0.6 0.2 0.7q0.1 0.1 0.3 0.1c0.1 0 0.3-0.1 0.4-0.3l0.2-0.3 0.2 0.3c0.1 0.2 0.3 0.3 0.4 0.3q0.2 0 0.3-0.1z"/><path fill-rule="evenodd" d="m90.5 50c0 7.3-2 14.2-5.4 20.1q0 0.1 0 0.1 0 0-0.1 0.1c-1.7 3-3.8 5.8-6.3 8.2q0 0.1-0.1 0.2 0 0 0 0c-2.5 2.4-5.3 4.6-8.3 6.3q0 0 0 0 0 0.1-0.1 0.1c-5.9 3.4-12.8 5.4-20.2 5.4-7.3 0-14.2-2-20.1-5.4q-0.1 0-0.1 0-0.1 0-0.2-0.1c-3-1.8-5.7-3.9-8.2-6.3q0 0-0.1-0.1 0 0 0-0.1c-2.4-2.4-4.6-5.2-6.3-8.2q0 0 0 0-0.1-0.1-0.1-0.2c-3.4-5.9-5.4-12.8-5.4-20.1 0-7.3 2-14.2 5.4-20.1q0-0.1 0-0.1 0-0.1 0.1-0.2c1.8-2.9 3.9-5.7 6.3-8.1q0-0.1 0.1-0.2 0 0 0.1 0c2.4-2.4 5.2-4.6 8.2-6.3q0 0 0 0 0.1-0.1 0.2-0.1c5.9-3.4 12.8-5.4 20.1-5.4 7.3 0 14.2 2 20.1 5.4q0.1 0 0.1 0 0.1 0 0.2 0.1c2.9 1.8 5.7 3.9 8.1 6.3q0.1 0 0.2 0.1 0 0 0 0.1c2.4 2.4 4.6 5.2 6.3 8.2q0 0 0 0 0.1 0.1 0.1 0.2c3.4 5.9 5.4 12.8 5.4 20.1zm-2.2-9.8l-19 2.4-7.6 5.9 8.8 3.7 19-2.6q-0.1-4.9-1.2-9.4zm-41.9 20l1.2 8.4 3.2-7.8-1.6-2.1q-0.3 0-0.7-0.1zm0.9-1.9q-0.6-0.2-1.2-0.5l0.2 1.3zm4 1.4l0.5-1.2q-0.7 0.2-1.3 0.2zm1-2.4l-1.7-0.7c-0.3-0.1-0.4-0.4-0.3-0.6 0.1-0.3 0.4-0.4 0.6-0.3l2.7 1.1c2-1.1 3.5-2.9 4-5.2l-1.5 1.2q-0.2 0.1-0.3 0.1-0.3 0-0.4-0.2c-0.2-0.2-0.2-0.5 0-0.7l2.3-1.8q0-0.1 0.1-0.2c0-2.3-1-4.3-2.6-5.7l0.3 1.8c0 0.3-0.2 0.6-0.4 0.6q-0.1 0-0.1 0c-0.2 0-0.5-0.2-0.5-0.4l-0.4-2.9c-1.2-0.8-2.6-1.2-4.1-1.2q-1.2 0-2.3 0.4l1.7 0.7c0.3 0.1 0.4 0.4 0.3 0.6-0.1 0.2-0.2 0.3-0.4 0.3q-0.1 0-0.2 0l-2.7-1.1c-2 1.1-3.5 2.9-4 5.2l1.5-1.2c0.3-0.2 0.6-0.1 0.8 0.1 0.1 0.2 0.1 0.5-0.1 0.7l-2.3 1.8q0 0.1 0 0.3c0 2.2 0.9 4.2 2.5 5.7l-0.3-1.9c0-0.3 0.2-0.6 0.4-0.6 0.3 0 0.6 0.2 0.6 0.4l0.4 2.9c1.2 0.8 2.6 1.2 4.1 1.2q1.2 0 2.3-0.4zm-6-15.3q0.4-0.1 0.7-0.2l1-2.5-5.2-6.7 1.1 8.4zm-2.3 0.2l0.1 1.2q0.5-0.4 1.1-0.8zm-8.9-3.6l5.1 6.8 2.6-0.4q0.2-0.3 0.4-0.6l-0.3-2.6zm5.8 7.7l0.8 1q0.2-0.6 0.5-1.2zm-1.2 0.1l-8.4 1.2 7.8 3.3 2.1-1.6q0.1-0.4 0.1-0.7zm1.5 4.1l-1 0.7 1.2 0.5q-0.2-0.6-0.2-1.2zm-8.6 6.6l8.4-1 1-2.5q-0.1-0.3-0.3-0.6l-2.4-1zm5.9 7.7l6.7-5.2-0.3-2.6q-0.3-0.2-0.6-0.4l-2.6 0.3zm4.9-9q-0.4-0.5-0.8-1.1l-0.5 1.2zm10.1-16l-1.1-8.4-3.3 7.8 1.6 2.1q0.4 0 0.7 0.1zm-0.8 1.9q0.6 0.2 1.2 0.5l-0.2-1.3zm-4-1.4l-0.5 1.2q0.6-0.2 1.2-0.2zm12 7.8l6.7-5.2-8.4 1-1 2.5q0.1 0.3 0.2 0.6zm-2 0.2q0.1 0.7 0.1 1.3l1-0.8zm-0.2 4.6q-0.2 0.6-0.5 1.1l1.2-0.1zm3.1-17.6l-6.7 5.1 0.4 2.6q0.3 0.2 0.5 0.4l2.7-0.3zm-4.9 9q0.4 0.5 0.8 1.1l0.4-1.2zm-0.7 12.3q-0.4 0.5-1 0.8l1.2 0.5zm-3.8 4.1l5.2 6.7-1.1-8.4-2.4-1q-0.4 0.2-0.7 0.3zm12.9 0.8l-5.1-6.8-2.6 0.4q-0.2 0.3-0.5 0.5l0.4 2.7zm-4.7-7.8l8.4-1.2-7.8-3.3-2.1 1.6q0 0.4-0.1 0.7zm24.3-22.8l-13.7 10.6 17.2-2.1q-1.3-4.5-3.5-8.5zm-6.3-8.4l-15.2 11.6-3.7 8.9 9.5-1.2 15.1-11.8c-1.6-2.7-3.5-5.2-5.7-7.5zm-14.5 9.8l13.8-10.5c-2.2-2.1-4.7-4-7.3-5.6zm-3.1-20.1l-7.4 17.6 1.3 9.5 7.7-5.8 7.2-17.7c-2.8-1.5-5.7-2.8-8.8-3.6zm-10-1.5l2.3 17.2 6.8-16q-4.4-1.1-9.1-1.2zm-10.4 1.2l2.4 19 5.9 7.6 3.7-8.8-2.6-19q-4.9 0.1-9.4 1.2zm-9.4 3.8l10.6 13.7-2.2-17.2q-4.5 1.3-8.4 3.5zm-8.4 6.3l11.5 15.2 8.9 3.6-1.2-9.5-11.7-15.1c-2.7 1.7-5.3 3.6-7.5 5.8zm-6.3 8l16 6.5-10.4-13.8c-2.1 2.2-4 4.6-5.6 7.3zm-4.1 9.6l17.6 7.4 9.5-1.3-5.8-7.6-17.7-7.3c-1.6 2.8-2.8 5.7-3.6 8.8zm-1.5 10l17.2-2.3-16-6.8q-1.1 4.4-1.2 9.1zm1.2 10.4l19-2.4 7.6-5.8-8.8-3.8-19 2.6q0.1 4.9 1.2 9.4zm3.8 9.5l13.7-10.7-17.2 2.2q1.3 4.5 3.5 8.5zm6.3 8.3l15.2-11.5 3.6-8.9-9.5 1.2-15.1 11.7c1.6 2.8 3.6 5.3 5.8 7.5zm14.5-9.7l-13.8 10.4c2.2 2.2 4.6 4 7.3 5.6zm3 20.2l7.5-17.7-1.3-9.5-7.7 5.8-7.2 17.7c2.7 1.6 5.7 2.8 8.7 3.7zm10.1 1.4l-2.4-17.1-6.7 15.9q4.4 1.2 9.1 1.2zm10.4-1.2l-2.4-19-5.9-7.6-3.7 8.9 2.6 18.9q4.9 0 9.4-1.2zm9.4-3.8l-10.6-13.6 2.1 17.1q4.5-1.2 8.5-3.5zm8.4-6.2l-11.6-15.3-8.8-3.6 1.2 9.5 11.7 15.1c2.7-1.6 5.2-3.5 7.5-5.7zm6.3-8l-16.1-6.5 10.5 13.7c2.1-2.2 4-4.6 5.6-7.2zm4.1-9.6l-17.6-7.5-9.5 1.4 5.8 7.6 17.7 7.2c1.5-2.7 2.7-5.6 3.6-8.7zm1.5-10.1l-17.2 2.4 16 6.7q1.1-4.4 1.2-9.1z"/><path  d="m47.7 56.4c-0.4 0-0.7-0.3-0.7-0.6 0-0.3 0.3-0.6 0.7-0.6 0.3 0 0.6 0.3 0.6 0.6 0 0.3-0.3 0.6-0.6 0.6z"/><path  d="m53.9 55.5c-0.4 0-0.7-0.2-0.7-0.6 0-0.3 0.3-0.6 0.7-0.6 0.3 0 0.6 0.3 0.6 0.6 0 0.4-0.3 0.6-0.6 0.6z"/><path  d="m56.2 49.7c-0.4 0-0.6-0.2-0.6-0.6 0-0.3 0.2-0.6 0.6-0.6 0.3 0 0.6 0.3 0.6 0.6 0 0.4-0.3 0.6-0.6 0.6z"/><path  d="m52.3 44.8c-0.3 0-0.6-0.3-0.6-0.6 0-0.3 0.3-0.6 0.6-0.6 0.4 0 0.7 0.3 0.7 0.6 0 0.3-0.3 0.6-0.7 0.6z"/><path  d="m46.1 45.7c-0.3 0-0.6-0.3-0.6-0.6 0-0.4 0.3-0.6 0.6-0.6 0.4 0 0.7 0.2 0.7 0.6 0 0.3-0.3 0.6-0.7 0.6z"/><path  d="m43.8 51.5c-0.3 0-0.6-0.3-0.6-0.6 0-0.4 0.3-0.6 0.6-0.6 0.4 0 0.6 0.2 0.6 0.6 0 0.3-0.2 0.6-0.6 0.6z"/><text style="transform:matrix(1,0,0,1,0,115)" ><tspan x="0" y="0" class="b">Created by Arthur Shlain
</tspan></text><text style="transform:matrix(1,0,0,1,0,120)" ><tspan x="0" y="0" class="b">from the Noun Project
</tspan></text></svg>